<svg width="12" height="12" viewBox="0 0 12 12" fill="none" xmlns="http://www.w3.org/2000/svg">
<path fill-rule="evenodd" clip-rule="evenodd" d="M6.00001 3C5.90056 3 5.80517 3.03951 5.73485 3.10984C5.66452 3.18016 5.62501 3.27555 5.62501 3.375L5.62501 7.71975L4.01551 6.1095C3.98065 6.07464 3.93926 6.04698 3.8937 6.02811C3.84815 6.00924 3.79932 5.99953 3.75001 5.99953C3.70071 5.99953 3.65188 6.00924 3.60633 6.02811C3.56077 6.04698 3.51938 6.07464 3.48451 6.1095C3.44965 6.14437 3.42199 6.18576 3.40312 6.23131C3.38425 6.27687 3.37454 6.32569 3.37454 6.375C3.37454 6.42431 3.38425 6.47313 3.40312 6.51869C3.42199 6.56424 3.44965 6.60564 3.48451 6.6405L5.73451 8.8905C5.76935 8.92542 5.81073 8.95313 5.85629 8.97204C5.90185 8.99094 5.95069 9.00067 6.00001 9.00067C6.04934 9.00067 6.09818 8.99094 6.14374 8.97204C6.1893 8.95313 6.23068 8.92542 6.26551 8.8905L8.51551 6.6405C8.58593 6.57009 8.62549 6.47458 8.62549 6.375C8.62549 6.27542 8.58593 6.17992 8.51551 6.1095C8.4451 6.03909 8.3496 5.99953 8.25001 5.99953C8.15043 5.99953 8.05493 6.03909 7.98451 6.1095L6.37501 7.71975L6.37501 3.375C6.37501 3.27555 6.3355 3.18016 6.26518 3.10984C6.19485 3.03951 6.09947 3 6.00001 3Z" fill="#0A182A"/>
</svg>
