<svg width="16" height="16" viewBox="0 0 16 16" fill="none" xmlns="http://www.w3.org/2000/svg">
<path d="M8.98015 3.23084C8.67385 3.07885 8.33914 3 8.00021 3C7.66127 3 7.32657 3.07885 7.02027 3.23084L1.3343 6.05235C1.22965 6.10407 1.14204 6.18722 1.08263 6.29123C1.02322 6.39524 0.994685 6.51541 1.00065 6.63645V10.3341C1.00065 10.4962 1.06211 10.6516 1.1715 10.7661C1.28089 10.8807 1.42925 10.9451 1.58395 10.9451C1.73865 10.9451 1.88701 10.8807 1.9964 10.7661C2.10579 10.6516 2.16725 10.4962 2.16725 10.3341V7.58958L3.33384 8.19568V11.5561C3.33386 11.6364 3.34901 11.716 3.37844 11.7903C3.40787 11.8645 3.45099 11.9319 3.50533 11.9886L3.53449 12.018L3.60449 12.0852C3.97011 12.4265 4.36535 12.7312 4.78508 12.9955C5.56436 13.4868 6.69012 14 8.00021 14C9.31029 14 10.4361 13.4868 11.2165 12.9955C11.6362 12.7313 12.0315 12.4265 12.3971 12.0852L12.4671 12.018L12.4939 11.9886H12.4963C12.5505 11.9317 12.5935 11.864 12.6227 11.7896C12.652 11.7151 12.6669 11.6353 12.6666 11.5549V8.19445L14.6754 7.1509C14.7736 7.09996 14.8562 7.02107 14.9135 6.92327C14.9709 6.82548 15.0008 6.71273 14.9999 6.59795C14.9989 6.48317 14.9671 6.371 14.908 6.27429C14.849 6.17758 14.7652 6.10024 14.6661 6.05113L8.98015 3.22962V3.23084ZM9.01748 10.0922L11.5 8.80177V11.2848C11.2233 11.5307 10.9279 11.7526 10.6169 11.9483C9.94025 12.3736 9.02331 12.778 8.00021 12.778C6.97711 12.778 6.06133 12.3748 5.38354 11.9483C5.0725 11.7526 4.77716 11.5307 4.50043 11.2848V8.80177L6.98294 10.0922C7.62456 10.4245 8.37585 10.4245 9.01748 10.0922ZM8.48084 4.3355L13.0795 6.6169L8.49834 8.99728C8.34349 9.07763 8.17302 9.11943 8.00021 9.11943C7.8274 9.11943 7.65693 9.07763 7.50207 8.99728L2.92087 6.6169L7.51957 4.3355C7.6698 4.26092 7.83396 4.22223 8.00021 4.22223C8.16645 4.22223 8.33062 4.26092 8.48084 4.3355ZM12.4939 11.9899L12.4928 11.9911L12.4939 11.9899Z" fill="#0A182A"/>
</svg>
