<svg width="12" height="12" viewBox="0 0 12 12" fill="none" xmlns="http://www.w3.org/2000/svg">
<path d="M6.35999 7.88999C6.28973 7.96034 6.19441 7.9999 6.09499 7.99999H5.90499C5.80578 7.99884 5.71085 7.95943 5.63999 7.88999L3.07499 5.31999C3.02766 5.27305 3.00104 5.20915 3.00104 5.14249C3.00104 5.07583 3.02766 5.01193 3.07499 4.96499L3.42999 4.60999C3.47607 4.56296 3.53914 4.53646 3.60499 4.53646C3.67083 4.53646 3.73391 4.56296 3.77999 4.60999L5.99999 6.83499L8.21999 4.60999C8.26693 4.56266 8.33083 4.53604 8.39749 4.53604C8.46415 4.53604 8.52805 4.56266 8.57499 4.60999L8.92499 4.96499C8.97232 5.01193 8.99894 5.07583 8.99894 5.14249C8.99894 5.20915 8.97232 5.27305 8.92499 5.31999L6.35999 7.88999Z" fill="#0A182A"/>
</svg>
