<svg width="12" height="12" viewBox="0 0 12 12" fill="none" xmlns="http://www.w3.org/2000/svg">
<path d="M6.35993 7.88999C6.28967 7.96034 6.19435 7.9999 6.09493 7.99999H5.90493C5.80572 7.99884 5.71079 7.95943 5.63993 7.88999L3.07493 5.31999C3.0276 5.27305 3.00098 5.20915 3.00098 5.14249C3.00098 5.07583 3.0276 5.01193 3.07493 4.96499L3.42993 4.60999C3.47601 4.56296 3.53908 4.53646 3.60493 4.53646C3.67077 4.53646 3.73384 4.56296 3.77993 4.60999L5.99993 6.83499L8.21993 4.60999C8.26687 4.56266 8.33077 4.53604 8.39743 4.53604C8.46409 4.53604 8.52798 4.56266 8.57493 4.60999L8.92493 4.96499C8.97225 5.01193 8.99888 5.07583 8.99888 5.14249C8.99888 5.20915 8.97225 5.27305 8.92493 5.31999L6.35993 7.88999Z" fill="#526DFC"/>
</svg>
