<svg width="16" height="16" viewBox="0 0 16 16" fill="none" xmlns="http://www.w3.org/2000/svg">
<path d="M8.00002 9.33332V10.6667C6.93915 10.6667 5.92174 11.0881 5.17159 11.8382C4.42145 12.5884 4.00002 13.6058 4.00002 14.6667H2.66669C2.66669 13.2522 3.22859 11.8956 4.22878 10.8954C5.22898 9.89523 6.58553 9.33332 8.00002 9.33332ZM8.00002 8.66666C5.79002 8.66666 4.00002 6.87666 4.00002 4.66666C4.00002 2.45666 5.79002 0.666656 8.00002 0.666656C10.21 0.666656 12 2.45666 12 4.66666C12 6.87666 10.21 8.66666 8.00002 8.66666ZM8.00002 7.33332C9.47335 7.33332 10.6667 6.13999 10.6667 4.66666C10.6667 3.19332 9.47335 1.99999 8.00002 1.99999C6.52669 1.99999 5.33335 3.19332 5.33335 4.66666C5.33335 6.13999 6.52669 7.33332 8.00002 7.33332ZM12 14.3333L10.0407 15.3633L10.4147 13.182L8.83002 11.6367L11.0207 11.318L12 9.33332L12.98 11.318L15.17 11.6367L13.5854 13.182L13.9587 15.3633L12 14.3333Z" fill="#526DFC"/>
</svg>
