<svg width="14" height="16" viewBox="0 0 14 16" fill="none" xmlns="http://www.w3.org/2000/svg">
<g clip-path="url(#clip0_1700_583)">
<path d="M7.57904 11.148C7.58117 10.8731 7.8048 10.6515 8.0797 10.6518L12.8882 10.6582C13.1646 10.6586 13.3889 10.4347 13.3889 10.1583V0.821308C13.3889 0.366747 12.9705 0 12.4927 0H0.831638C0.353834 0 0 0.366747 0 0.821308V15.1684C0 15.6229 0.353834 15.9897 0.831638 15.9897H7.04542C7.32005 15.9897 7.54328 15.7682 7.54541 15.4935L7.57904 11.148Z" fill="#526DFC"/>
<path d="M8.86271 11.4539C8.58664 11.4528 8.36187 11.6756 8.36062 11.9517L8.34742 14.8566C8.34544 15.2927 8.8637 15.5222 9.18521 15.2275L12.3409 12.3358C12.6764 12.0284 12.4602 11.469 12.0052 11.4671L8.86271 11.4539Z" fill="#526DFC"/>
<rect x="1" y="4" width="11" height="1" rx="0.5" fill="white"/>
<rect x="1" y="7" width="11" height="1" rx="0.5" fill="white"/>
</g>
<defs>
<clipPath id="clip0_1700_583">
<rect width="13.3889" height="16" fill="white"/>
</clipPath>
</defs>
</svg>
