<svg width="16" height="16" viewBox="0 0 16 16" fill="none" xmlns="http://www.w3.org/2000/svg">
<path d="M11.3333 14H4.66663V12.6667H5.99996V12H1.99996C1.64634 12 1.3072 11.8595 1.05715 11.6095C0.807102 11.3594 0.666626 11.0203 0.666626 10.6667V3.33333C0.666626 2.97971 0.807102 2.64057 1.05715 2.39052C1.3072 2.14048 1.64634 2 1.99996 2H14C14.3536 2 14.6927 2.14048 14.9428 2.39052C15.1928 2.64057 15.3333 2.97971 15.3333 3.33333V10.6667C15.3333 11.0203 15.1928 11.3594 14.9428 11.6095C14.6927 11.8595 14.3536 12 14 12H9.99996V12.6667H11.3333V14ZM1.99996 3.33333V10.6667H14V3.33333H1.99996Z" fill="#8D959E"/>
</svg>
