<svg width="15" height="16" viewBox="0 0 15 16" fill="none" xmlns="http://www.w3.org/2000/svg">
<path d="M11.1667 13.6875C11.4187 13.6875 11.625 13.4906 11.625 13.25V12.375H13V13.25C13 14.2152 12.1779 15 11.1667 15H3.83333C2.8207 15 2 14.2152 2 13.25V12.375H3.375V13.25C3.375 13.4906 3.5801 13.6875 3.83333 13.6875H11.1667ZM9.33333 5.375C8.8263 5.375 8.41667 4.98398 8.41667 4.5V2.3125H3.83333C3.5801 2.3125 3.375 2.50828 3.375 2.75V6.25H2V2.75C2 1.7834 2.8207 1 3.83333 1H8.57422C9.0612 1 9.52526 1.18438 9.86901 1.5127L12.4643 3.98867C12.8081 4.3168 13 4.75977 13 5.22461V6.25H11.625V5.375H9.33333ZM4.52083 7.125C5.40599 7.125 6.125 7.81133 6.125 8.65625C6.125 9.50117 5.40599 10.1875 4.52083 10.1875H4.29167V11.0625C4.29167 11.3031 4.08656 11.5 3.83333 11.5C3.5801 11.5 3.375 11.3031 3.375 11.0625V7.5625C3.375 7.32188 3.5801 7.125 3.83333 7.125H4.52083ZM5.20833 8.65625C5.20833 8.29258 4.90182 8 4.52083 8H4.29167V9.3125H4.52083C4.90182 9.3125 5.20833 9.01992 5.20833 8.65625ZM6.58333 7.5625C6.58333 7.32188 6.78958 7.125 7.04167 7.125H7.72917C8.48828 7.125 9.10417 7.71289 9.10417 8.4375V10.1875C9.10417 10.9121 8.48828 11.5 7.72917 11.5H7.04167C6.78958 11.5 6.58333 11.3031 6.58333 11.0625V7.5625ZM7.5 10.625H7.72917C7.98125 10.625 8.1875 10.4281 8.1875 10.1875V8.4375C8.1875 8.19688 7.98125 8 7.72917 8H7.5V10.625ZM11.625 7.125C11.8771 7.125 12.0833 7.32188 12.0833 7.5625C12.0833 7.80312 11.8771 8 11.625 8H10.7083V8.875H11.625C11.8771 8.875 12.0833 9.07187 12.0833 9.3125C12.0833 9.55313 11.8771 9.75 11.625 9.75H10.7083V11.0625C10.7083 11.3031 10.5021 11.5 10.25 11.5C9.99792 11.5 9.79167 11.3031 9.79167 11.0625V7.5625C9.79167 7.32188 9.99792 7.125 10.25 7.125H11.625Z" fill="#526DFC"/>
</svg>
