<svg width="16" height="16" viewBox="0 0 16 16" fill="none" xmlns="http://www.w3.org/2000/svg">
<path d="M10.6666 4.66667C10.6666 5.37391 10.3857 6.05219 9.8856 6.55229C9.3855 7.05238 8.70722 7.33333 7.99998 7.33333C7.29274 7.33333 6.61446 7.05238 6.11436 6.55229C5.61426 6.05219 5.33331 5.37391 5.33331 4.66667C5.33331 3.95942 5.61426 3.28115 6.11436 2.78105C6.61446 2.28095 7.29274 2 7.99998 2C8.70722 2 9.3855 2.28095 9.8856 2.78105C10.3857 3.28115 10.6666 3.95942 10.6666 4.66667V4.66667ZM7.99998 9.33333C6.7623 9.33333 5.57532 9.825 4.70015 10.7002C3.82498 11.5753 3.33331 12.7623 3.33331 14H12.6666C12.6666 12.7623 12.175 11.5753 11.2998 10.7002C10.4246 9.825 9.23766 9.33333 7.99998 9.33333V9.33333Z" stroke="#526DFC" stroke-width="1.2" stroke-linecap="round" stroke-linejoin="round"/>
</svg>
