<svg width="16" height="16" viewBox="0 0 16 16" fill="none" xmlns="http://www.w3.org/2000/svg">
<path d="M3.33337 3.33333C3.15656 3.33333 2.98699 3.40357 2.86197 3.5286C2.73695 3.65362 2.66671 3.82319 2.66671 4V10C2.66671 10.1768 2.73695 10.3464 2.86197 10.4714C2.98699 10.5964 3.15656 10.6667 3.33337 10.6667H12.6667C12.8435 10.6667 13.0131 10.5964 13.1381 10.4714C13.2631 10.3464 13.3334 10.1768 13.3334 10V4C13.3334 3.82319 13.2631 3.65362 13.1381 3.5286C13.0131 3.40357 12.8435 3.33333 12.6667 3.33333H3.33337ZM3.33337 2H12.6667C13.1971 2 13.7058 2.21071 14.0809 2.58579C14.456 2.96086 14.6667 3.46957 14.6667 4V10C14.6667 10.5304 14.456 11.0391 14.0809 11.4142C13.7058 11.7893 13.1971 12 12.6667 12H3.33337C2.80294 12 2.29423 11.7893 1.91916 11.4142C1.54409 11.0391 1.33337 10.5304 1.33337 10L1.33337 4C1.33337 3.46957 1.54409 2.96086 1.91916 2.58579C2.29423 2.21071 2.80294 2 3.33337 2V2ZM6.00004 12.6667H10C10.1769 12.6667 10.3464 12.7369 10.4714 12.8619C10.5965 12.987 10.6667 13.1565 10.6667 13.3333C10.6667 13.5101 10.5965 13.6797 10.4714 13.8047C10.3464 13.9298 10.1769 14 10 14H6.00004C5.82323 14 5.65366 13.9298 5.52864 13.8047C5.40361 13.6797 5.33337 13.5101 5.33337 13.3333C5.33337 13.1565 5.40361 12.987 5.52864 12.8619C5.65366 12.7369 5.82323 12.6667 6.00004 12.6667Z" fill="#526DFC"/>
</svg>
