<svg width="16" height="16" viewBox="0 0 16 16" fill="none" xmlns="http://www.w3.org/2000/svg">
<path d="M14.1888 5.51718L10.2216 4.94061L8.44816 1.3453C8.39972 1.24686 8.32004 1.16717 8.2216 1.11874C7.97472 0.996862 7.67472 1.09842 7.55129 1.3453L5.77785 4.94061L1.81066 5.51718C1.70129 5.5328 1.60129 5.58436 1.52472 5.66249C1.43216 5.75762 1.38116 5.88561 1.38292 6.01833C1.38468 6.15106 1.43905 6.27765 1.5341 6.3703L4.40441 9.16874L3.72629 13.1203C3.71038 13.2122 3.72056 13.3068 3.75565 13.3932C3.79074 13.4796 3.84935 13.5545 3.92483 13.6093C4.00031 13.6641 4.08964 13.6967 4.18269 13.7034C4.27574 13.71 4.36879 13.6904 4.45129 13.6469L7.99972 11.7812L11.5482 13.6469C11.645 13.6984 11.7575 13.7156 11.8654 13.6969C12.1372 13.65 12.32 13.3922 12.2732 13.1203L11.595 9.16874L14.4654 6.3703C14.5435 6.29374 14.595 6.19374 14.6107 6.08436C14.6529 5.81093 14.4622 5.5578 14.1888 5.51718ZM10.3872 8.77499L10.9513 12.0609L7.99972 10.5109L5.04816 12.0625L5.61222 8.77655L3.22472 6.44843L6.52472 5.96874L7.99972 2.97967L9.47473 5.96874L12.7747 6.44843L10.3872 8.77499Z" fill="#0A182A"/>
</svg>
