<svg width="12" height="12" viewBox="0 0 12 12" fill="none" xmlns="http://www.w3.org/2000/svg">
<path fill-rule="evenodd" clip-rule="evenodd" d="M5.99999 9C6.09944 9 6.19482 8.96049 6.26515 8.89016C6.33548 8.81984 6.37499 8.72445 6.37499 8.625V4.28025L7.98449 5.8905C8.01935 5.92536 8.06074 5.95302 8.1063 5.97189C8.15185 5.99076 8.20068 6.00047 8.24999 6.00047C8.29929 6.00047 8.34812 5.99076 8.39367 5.97189C8.43923 5.95302 8.48062 5.92536 8.51549 5.8905C8.55035 5.85563 8.57801 5.81424 8.59688 5.76869C8.61575 5.72313 8.62546 5.67431 8.62546 5.625C8.62546 5.57569 8.61575 5.52687 8.59688 5.48131C8.57801 5.43576 8.55035 5.39436 8.51549 5.3595L6.26549 3.1095C6.23065 3.07458 6.18927 3.04687 6.14371 3.02796C6.09815 3.00906 6.04931 2.99933 5.99999 2.99933C5.95066 2.99933 5.90182 3.00906 5.85626 3.02796C5.8107 3.04687 5.76932 3.07458 5.73449 3.1095L3.48449 5.3595C3.41407 5.42991 3.37451 5.52542 3.37451 5.625C3.37451 5.72458 3.41407 5.82008 3.48449 5.8905C3.5549 5.96091 3.6504 6.00047 3.74999 6.00047C3.84957 6.00047 3.94507 5.96091 4.01549 5.8905L5.62499 4.28025V8.625C5.62499 8.72445 5.66449 8.81984 5.73482 8.89016C5.80515 8.96049 5.90053 9 5.99999 9Z" fill="#0A182A"/>
</svg>
